<?xml version="1.0" standalone="no"?>
<!DOCTYPE svg PUBLIC "-//W3C//DTD SVG 20010904//EN"
 "http://www.w3.org/TR/2001/REC-SVG-20010904/DTD/svg10.dtd">
<svg version="1.0" xmlns="http://www.w3.org/2000/svg"
 width="221.000000pt" height="221.000000pt" viewBox="0 0 221.000000 221.000000"
 preserveAspectRatio="xMidYMid meet">

<g transform="translate(0.000000,221.000000) scale(0.100000,-0.100000)"
fill="#000000" stroke="none">
<path d="M1089 2108 c-1 -57 -1 -112 0 -123 1 -11 -6 -38 -15 -60 -14 -35 -18
-37 -24 -20 -4 11 -10 67 -14 125 -10 149 -15 170 -37 170 -24 0 -24 -10 2
-220 19 -152 20 -170 6 -196 -11 -21 -17 -25 -20 -14 -6 17 -77 401 -77 413 0
6 -37 1 -47 -7 -1 -1 22 -105 52 -231 51 -219 54 -255 26 -255 -4 0 -39 106
-77 235 -38 129 -73 235 -79 235 -38 -1 -35 -18 43 -246 72 -209 104 -333 84
-320 -5 3 -57 122 -117 266 -82 198 -112 260 -124 258 -9 -2 -17 -10 -19 -18
-1 -9 51 -130 118 -270 79 -168 116 -258 110 -264 -6 -6 -13 -6 -19 0 -5 5
-67 115 -136 244 -70 129 -134 242 -141 250 -12 12 -16 12 -28 0 -13 -13 2
-43 121 -238 101 -166 133 -226 124 -235 -15 -15 -17 -13 -176 218 -76 110
-139 202 -142 204 -2 3 -11 -3 -20 -12 -15 -15 -5 -32 152 -239 149 -197 201
-279 168 -267 -6 2 -95 103 -198 224 -103 121 -191 221 -195 223 -4 1 -13 -4
-20 -13 -11 -14 -8 -21 21 -53 94 -100 319 -342 352 -377 23 -25 33 -43 27
-49 -11 -11 -2 -20 -263 227 -162 154 -201 186 -213 176 -8 -6 -14 -15 -14
-19 0 -4 98 -92 217 -195 120 -104 225 -194 233 -201 10 -10 11 -17 3 -25 -9
-9 -51 19 -165 107 -250 193 -312 240 -327 248 -12 8 -30 -8 -31 -26 0 -4 110
-84 245 -178 135 -94 245 -177 245 -185 0 -8 -3 -15 -6 -15 -4 0 -121 70 -261
156 -142 86 -261 153 -269 150 -35 -14 -3 -40 163 -131 304 -167 353 -196 353
-211 0 -8 -2 -14 -4 -14 -2 0 -127 59 -277 130 -150 72 -279 130 -287 130 -8
0 -12 -8 -10 -22 2 -18 33 -34 173 -93 94 -39 223 -93 287 -120 99 -41 140
-68 126 -80 -2 -2 -140 46 -308 105 -268 94 -306 106 -317 92 -7 -8 -10 -19
-7 -23 2 -4 44 -20 92 -34 520 -157 620 -190 609 -201 -3 -3 -157 31 -343 75
-413 97 -378 91 -382 64 -4 -25 -48 -14 471 -113 213 -41 387 -78 387 -82 0
-4 -12 -5 -27 -3 -55 10 -807 105 -829 105 -17 0 -24 -6 -24 -19 0 -24 12 -28
125 -36 155 -11 768 -65 769 -68 9 -21 29 -76 33 -88 5 -19 34 -2 -447 -264
-190 -104 -346 -190 -348 -191 -2 -1 1 -12 7 -23 11 -19 32 -8 393 210 369
223 497 290 306 161 -51 -35 -127 -86 -168 -115 -41 -29 -163 -112 -270 -186
-107 -74 -198 -137 -203 -141 -4 -3 -1 -15 7 -25 15 -21 0 -32 544 383 90 68
166 122 169 118 3 -3 -4 -13 -16 -23 -11 -10 -160 -137 -330 -283 -287 -246
-308 -266 -293 -282 17 -21 -17 -50 342 286 124 116 239 222 254 236 29 25 29
25 17 2 -7 -13 -133 -151 -281 -307 -256 -269 -268 -284 -251 -299 17 -16 30
-3 247 248 208 240 258 290 223 224 -12 -24 -118 -166 -289 -388 -119 -155
-115 -147 -91 -160 18 -9 34 10 172 207 83 120 157 225 165 233 12 12 14 11
14 -12 0 -17 -51 -111 -135 -247 -74 -122 -135 -225 -135 -230 0 -15 33 -22
42 -9 15 23 175 311 197 356 23 44 41 48 41 8 0 -13 -41 -110 -92 -216 -73
-155 -88 -194 -77 -201 24 -15 28 -11 54 46 19 45 28 55 48 55 36 0 38 -8 16
-67 -22 -56 -20 -83 5 -83 10 0 22 24 36 70 17 58 25 71 46 76 14 4 28 4 31 1
3 -4 -3 -42 -14 -86 -20 -80 -20 -80 -1 -87 11 -3 22 -3 25 0 3 3 13 43 22 88
15 80 17 83 45 86 28 4 28 3 22 -40 -21 -151 -21 -148 6 -148 l24 0 23 272
c13 150 25 275 28 278 2 2 9 -2 14 -10 7 -10 8 -112 5 -282 l-5 -268 25 0 24
0 0 130 0 130 24 0 c23 0 24 -3 30 -108 9 -131 12 -142 38 -142 20 0 20 4 14
63 -20 181 -20 183 -1 191 10 4 22 3 25 -1 4 -4 17 -59 28 -122 12 -62 24
-116 27 -119 2 -3 13 -1 23 4 18 9 18 13 -6 121 -14 62 -24 115 -21 117 2 2
13 6 23 8 16 2 24 -13 54 -107 19 -60 35 -112 37 -113 2 -2 12 -1 23 3 20 6
19 9 -13 103 -47 138 -230 668 -248 721 -18 49 -10 124 17 176 9 17 16 36 16
43 0 7 10 17 23 22 12 5 17 9 10 9 -28 2 38 49 107 78 527 216 747 308 754
314 6 5 6 16 0 27 -8 17 -41 4 -389 -159 -209 -98 -393 -182 -408 -188 -62
-23 -8 12 160 102 290 156 586 317 591 322 3 3 1 14 -4 25 -8 18 -31 6 -294
-151 -425 -255 -450 -269 -450 -260 0 5 33 31 73 58 390 267 617 426 617 431
-1 18 -19 34 -31 26 -8 -4 -151 -111 -318 -236 -167 -126 -306 -226 -310 -223
-3 4 8 19 24 33 59 51 291 250 428 367 75 64 137 120 137 125 0 4 -6 13 -13
19 -11 9 -46 -18 -162 -127 -241 -223 -245 -227 -245 -203 0 19 135 179 200
236 12 11 49 51 83 88 56 64 59 69 43 85 -12 12 -19 14 -24 6 -18 -29 -306
-354 -314 -354 -29 0 9 64 131 223 105 136 137 185 129 194 -6 7 -16 13 -22
13 -6 -1 -67 -82 -136 -182 -69 -100 -131 -183 -138 -186 -31 -10 -17 33 44
134 160 262 167 275 156 286 -6 6 -17 8 -24 5 -7 -3 -62 -95 -123 -206 -67
-121 -119 -205 -132 -212 -13 -7 -25 -10 -27 -8 -2 2 13 38 33 79 112 228 181
384 174 391 -25 24 -38 2 -138 -230 -57 -134 -109 -249 -114 -254 -7 -7 -12
-5 -16 4 -5 15 21 96 123 382 49 137 50 139 28 147 -11 4 -22 7 -23 6 -1 -1
-38 -120 -83 -266 -45 -146 -90 -294 -102 -330 -11 -36 -22 -71 -24 -79 -3 -9
-8 -11 -14 -5 -5 5 -3 33 6 69 107 443 144 600 144 616 0 28 -38 25 -45 -3 -6
-26 -110 -563 -121 -621 -6 -35 -19 -55 -30 -44 -2 2 2 51 10 108 27 184 76
564 76 582 0 11 -8 17 -25 17 -22 0 -25 -4 -25 -32 0 -42 -49 -615 -56 -645
-2 -13 -9 -23 -15 -23 -15 0 -1 440 15 459 13 16 36 122 29 134 -2 4 -10 7
-18 7 -10 0 -15 16 -17 53 -3 45 -6 52 -25 55 -23 3 -23 1 -24 -100z m11 -432
c0 -91 -4 -167 -9 -170 -20 -13 -38 247 -21 299 22 68 30 35 30 -129z m-45
-128 c6 -68 5 -71 -8 -46 -24 42 -34 109 -23 141 l10 29 7 -25 c4 -14 10 -58
14 -99z m-53 -50 c-14 -14 -28 54 -17 79 6 14 11 8 18 -25 7 -30 7 -46 -1 -54z
m-27 -8 c3 -5 1 -10 -4 -10 -6 0 -11 5 -11 10 0 6 2 10 4 10 3 0 8 -4 11 -10z
m410 -130 c-20 -22 -31 -20 -22 5 4 8 14 15 23 15 16 0 16 -2 -1 -20z m-375
-94 c-6 -17 -14 -25 -22 -20 -9 6 -9 9 -1 11 7 3 9 11 6 20 -4 11 -2 14 5 9 7
-4 12 -2 12 5 0 7 2 10 5 7 3 -3 1 -17 -5 -32z m-54 -142 c-4 -61 -12 -64 -35
-14 -18 40 -18 45 -3 56 28 20 42 6 38 -42z m290 -480 c40 -136 72 -250 69
-252 -2 -2 -18 25 -36 59 -21 42 -47 127 -76 248 -23 102 -43 189 -43 195 0
29 19 -27 86 -250z m-67 87 c11 -63 19 -117 16 -119 -10 -10 -33 59 -39 118
-4 36 -9 81 -13 100 -3 23 -2 32 5 25 5 -5 19 -61 31 -124z m-180 -94 c-12
-60 -29 -68 -29 -14 0 30 26 84 36 74 2 -2 -1 -29 -7 -60z m26 -172 c-12 -103
-21 -153 -28 -146 -12 12 -3 207 13 274 9 35 15 46 23 38 8 -8 6 -55 -8 -166z
m115 -52 c0 -8 7 -27 16 -43 20 -33 13 -60 -16 -60 -18 0 -20 6 -20 66 0 41 4
63 10 59 6 -3 10 -13 10 -22z m-295 -16 c9 -48 -25 -129 -58 -138 -14 -4 -28
-5 -30 -2 -6 6 66 173 75 173 4 0 10 -15 13 -33z"/>
<path d="M1990 1405 c-528 -180 -666 -228 -674 -235 -5 -5 49 8 120 29 734
217 724 214 724 232 0 10 -3 20 -7 22 -5 2 -78 -19 -163 -48z"/>
<path d="M1750 1252 c-228 -53 -417 -97 -419 -99 -16 -12 37 -4 289 43 628
118 571 105 568 127 -2 11 -7 21 -13 23 -5 1 -197 -41 -425 -94z"/>
<path d="M2060 1219 c-74 -9 -254 -31 -400 -48 -280 -33 -324 -40 -317 -48 3
-2 83 3 178 11 96 8 278 22 404 31 267 19 284 22 276 50 -6 20 -7 20 -141 4z"/>
<path d="M4 1115 c-4 -9 -2 -21 3 -26 9 -9 871 6 881 16 3 3 -44 5 -104 6 -60
0 -131 2 -159 4 -27 2 -177 6 -333 10 -254 5 -283 4 -288 -10z"/>
<path d="M1570 1110 c-129 -3 -226 -8 -215 -12 11 -3 180 -9 375 -13 195 -3
383 -8 418 -11 62 -6 62 -6 62 20 l0 26 -202 -2 c-112 -1 -309 -5 -438 -8z"/>
<path d="M1238 1093 c7 -3 16 -2 19 1 4 3 -2 6 -13 5 -11 0 -14 -3 -6 -6z"/>
<path d="M495 1054 c-209 -18 -404 -33 -432 -33 -50 -1 -53 -3 -53 -26 0 -17
6 -25 18 -25 45 -1 858 104 867 112 5 5 3 8 -5 7 -8 -1 -186 -16 -395 -35z"/>
<path d="M1310 1080 c20 -13 33 -13 25 0 -3 6 -14 10 -23 10 -15 0 -15 -2 -2
-10z"/>
<path d="M1352 1075 c3 -4 821 -115 845 -115 2 0 3 11 3 24 0 23 -4 24 -82 31
-46 4 -229 20 -408 36 -342 30 -366 32 -358 24z"/>
<path d="M465 983 c-241 -46 -440 -85 -442 -86 -7 -8 11 -47 21 -44 6 3 202
49 436 103 234 54 427 99 429 101 16 12 -54 0 -444 -74z"/>
<path d="M1322 1054 c5 -5 261 -69 658 -165 91 -22 173 -42 183 -45 13 -4 17
1 17 20 0 14 -1 26 -3 26 -1 0 -194 38 -427 85 -456 91 -436 88 -428 79z"/>
<path d="M467 912 c-391 -118 -417 -127 -411 -146 9 -28 8 -28 40 -15 16 6
204 72 419 146 214 74 392 136 394 139 12 12 -58 -8 -442 -124z"/>
<path d="M1326 1031 c5 -5 164 -63 354 -130 190 -67 371 -132 403 -143 50 -18
60 -19 68 -7 5 8 7 18 6 23 -2 5 -104 40 -227 78 -124 37 -274 84 -335 103
-224 69 -278 84 -269 76z"/>
<path d="M501 850 c-222 -93 -405 -171 -407 -173 -7 -7 7 -37 17 -37 5 0 113
49 241 109 128 59 280 130 338 157 165 77 236 112 225 113 -5 0 -192 -76 -414
-169z"/>
<path d="M1305 1013 c6 -5 156 -79 335 -164 179 -84 354 -168 390 -185 59 -29
66 -31 78 -16 6 9 9 19 5 23 -7 7 -753 328 -803 347 -10 3 -12 2 -5 -5z"/>
<path d="M1290 996 c0 -3 39 -28 88 -57 48 -29 217 -133 377 -231 263 -162
291 -177 302 -161 7 9 10 20 6 24 -8 7 -673 378 -741 413 -17 9 -32 14 -32 12z"/>
<path d="M1314 949 c99 -84 653 -502 666 -503 8 -1 16 6 18 15 2 11 -19 32
-60 61 -35 24 -191 134 -348 244 -296 208 -341 238 -276 183z"/>
<path d="M1260 967 c0 -4 500 -483 618 -591 32 -30 34 -30 47 -12 13 17 10 22
-23 50 -37 31 -257 222 -421 366 -165 144 -221 192 -221 187z"/>
<path d="M1246 949 c5 -9 136 -165 292 -347 268 -314 312 -357 312 -307 0 7
-100 120 -222 251 -301 325 -393 422 -382 403z"/>
<path d="M1315 805 c224 -330 417 -605 424 -605 5 0 14 6 20 13 8 11 -45 88
-245 353 -140 186 -262 346 -271 354 -9 8 24 -43 72 -115z"/>
<path d="M1190 917 c0 -5 70 -178 156 -385 86 -208 162 -392 170 -409 14 -35
20 -38 43 -24 12 8 -20 84 -169 403 -193 415 -199 428 -200 415z"/>
<path d="M1250 845 c24 -44 66 -123 95 -175 29 -52 102 -187 164 -300 61 -113
115 -211 119 -218 9 -13 42 -6 42 9 0 10 -438 740 -452 754 -6 6 8 -26 32 -70z"/>
</g>
</svg>
