<svg width="221" height="221" xmlns="http://www.w3.org/2000/svg" version="1.0" preserveAspectRatio="xMidYMid meet">
 <g>
  <title>Layer 1</title>
  <g transform="translate(0 221) scale(0.1 -0.1)" fill="#000000" id="svg_1">
   <path fill="#ffffff" d="m1089,2108c-1,-57 -1,-112 0,-123c1,-11 -6,-38 -15,-60c-14,-35 -18,-37 -24,-20c-4,11 -10,67 -14,125c-10,149 -15,170 -37,170c-24,0 -24,-10 2,-220c19,-152 20,-170 6,-196c-11,-21 -17,-25 -20,-14c-6,17 -77,401 -77,413c0,6 -37,1 -47,-7c-1,-1 22,-105 52,-231c51,-219 54,-255 26,-255c-4,0 -39,106 -77,235c-38,129 -73,235 -79,235c-38,-1 -35,-18 43,-246c72,-209 104,-333 84,-320c-5,3 -57,122 -117,266c-82,198 -112,260 -124,258c-9,-2 -17,-10 -19,-18c-1,-9 51,-130 118,-270c79,-168 116,-258 110,-264c-6,-6 -13,-6 -19,0c-5,5 -67,115 -136,244c-70,129 -134,242 -141,250c-12,12 -16,12 -28,0c-13,-13 2,-43 121,-238c101,-166 133,-226 124,-235c-15,-15 -17,-13 -176,218c-76,110 -139,202 -142,204c-2,3 -11,-3 -20,-12c-15,-15 -5,-32 152,-239c149,-197 201,-279 168,-267c-6,2 -95,103 -198,224c-103,121 -191,221 -195,223c-4,1 -13,-4 -20,-13c-11,-14 -8,-21 21,-53c94,-100 319,-342 352,-377c23,-25 33,-43 27,-49c-11,-11 -2,-20 -263,227c-162,154 -201,186 -213,176c-8,-6 -14,-15 -14,-19c0,-4 98,-92 217,-195c120,-104 225,-194 233,-201c10,-10 11,-17 3,-25c-9,-9 -51,19 -165,107c-250,193 -312,240 -327,248c-12,8 -30,-8 -31,-26c0,-4 110,-84 245,-178c135,-94 245,-177 245,-185c0,-8 -3,-15 -6,-15c-4,0 -121,70 -261,156c-142,86 -261,153 -269,150c-35,-14 -3,-40 163,-131c304,-167 353,-196 353,-211c0,-8 -2,-14 -4,-14c-2,0 -127,59 -277,130c-150,72 -279,130 -287,130c-8,0 -12,-8 -10,-22c2,-18 33,-34 173,-93c94,-39 223,-93 287,-120c99,-41 140,-68 126,-80c-2,-2 -140,46 -308,105c-268,94 -306,106 -317,92c-7,-8 -10,-19 -7,-23c2,-4 44,-20 92,-34c520,-157 620,-190 609,-201c-3,-3 -157,31 -343,75c-413,97 -378,91 -382,64c-4,-25 -48,-14 471,-113c213,-41 387,-78 387,-82c0,-4 -12,-5 -27,-3c-55,10 -807,105 -829,105c-17,0 -24,-6 -24,-19c0,-24 12,-28 125,-36c155,-11 768,-65 769,-68c9,-21 29,-76 33,-88c5,-19 34,-2 -447,-264c-190,-104 -346,-190 -348,-191c-2,-1 1,-12 7,-23c11,-19 32,-8 393,210c369,223 497,290 306,161c-51,-35 -127,-86 -168,-115c-41,-29 -163,-112 -270,-186c-107,-74 -198,-137 -203,-141c-4,-3 -1,-15 7,-25c15,-21 0,-32 544,383c90,68 166,122 169,118c3,-3 -4,-13 -16,-23c-11,-10 -160,-137 -330,-283c-287,-246 -308,-266 -293,-282c17,-21 -17,-50 342,286c124,116 239,222 254,236c29,25 29,25 17,2c-7,-13 -133,-151 -281,-307c-256,-269 -268,-284 -251,-299c17,-16 30,-3 247,248c208,240 258,290 223,224c-12,-24 -118,-166 -289,-388c-119,-155 -115,-147 -91,-160c18,-9 34,10 172,207c83,120 157,225 165,233c12,12 14,11 14,-12c0,-17 -51,-111 -135,-247c-74,-122 -135,-225 -135,-230c0,-15 33,-22 42,-9c15,23 175,311 197,356c23,44 41,48 41,8c0,-13 -41,-110 -92,-216c-73,-155 -88,-194 -77,-201c24,-15 28,-11 54,46c19,45 28,55 48,55c36,0 38,-8 16,-67c-22,-56 -20,-83 5,-83c10,0 22,24 36,70c17,58 25,71 46,76c14,4 28,4 31,1c3,-4 -3,-42 -14,-86c-20,-80 -20,-80 -1,-87c11,-3 22,-3 25,0c3,3 13,43 22,88c15,80 17,83 45,86c28,4 28,3 22,-40c-21,-151 -21,-148 6,-148l24,0l23,272c13,150 25,275 28,278c2,2 9,-2 14,-10c7,-10 8,-112 5,-282l-5,-268l25,0l24,0l0,130l0,130l24,0c23,0 24,-3 30,-108c9,-131 12,-142 38,-142c20,0 20,4 14,63c-20,181 -20,183 -1,191c10,4 22,3 25,-1c4,-4 17,-59 28,-122c12,-62 24,-116 27,-119c2,-3 13,-1 23,4c18,9 18,13 -6,121c-14,62 -24,115 -21,117c2,2 13,6 23,8c16,2 24,-13 54,-107c19,-60 35,-112 37,-113c2,-2 12,-1 23,3c20,6 19,9 -13,103c-47,138 -230,668 -248,721c-18,49 -10,124 17,176c9,17 16,36 16,43c0,7 10,17 23,22c12,5 17,9 10,9c-28,2 38,49 107,78c527,216 747,308 754,314c6,5 6,16 0,27c-8,17 -41,4 -389,-159c-209,-98 -393,-182 -408,-188c-62,-23 -8,12 160,102c290,156 586,317 591,322c3,3 1,14 -4,25c-8,18 -31,6 -294,-151c-425,-255 -450,-269 -450,-260c0,5 33,31 73,58c390,267 617,426 617,431c-1,18 -19,34 -31,26c-8,-4 -151,-111 -318,-236c-167,-126 -306,-226 -310,-223c-3,4 8,19 24,33c59,51 291,250 428,367c75,64 137,120 137,125c0,4 -6,13 -13,19c-11,9 -46,-18 -162,-127c-241,-223 -245,-227 -245,-203c0,19 135,179 200,236c12,11 49,51 83,88c56,64 59,69 43,85c-12,12 -19,14 -24,6c-18,-29 -306,-354 -314,-354c-29,0 9,64 131,223c105,136 137,185 129,194c-6,7 -16,13 -22,13c-6,-1 -67,-82 -136,-182c-69,-100 -131,-183 -138,-186c-31,-10 -17,33 44,134c160,262 167,275 156,286c-6,6 -17,8 -24,5c-7,-3 -62,-95 -123,-206c-67,-121 -119,-205 -132,-212c-13,-7 -25,-10 -27,-8c-2,2 13,38 33,79c112,228 181,384 174,391c-25,24 -38,2 -138,-230c-57,-134 -109,-249 -114,-254c-7,-7 -12,-5 -16,4c-5,15 21,96 123,382c49,137 50,139 28,147c-11,4 -22,7 -23,6c-1,-1 -38,-120 -83,-266c-45,-146 -90,-294 -102,-330c-11,-36 -22,-71 -24,-79c-3,-9 -8,-11 -14,-5c-5,5 -3,33 6,69c107,443 144,600 144,616c0,28 -38,25 -45,-3c-6,-26 -110,-563 -121,-621c-6,-35 -19,-55 -30,-44c-2,2 2,51 10,108c27,184 76,564 76,582c0,11 -8,17 -25,17c-22,0 -25,-4 -25,-32c0,-42 -49,-615 -56,-645c-2,-13 -9,-23 -15,-23c-15,0 -1,440 15,459c13,16 36,122 29,134c-2,4 -10,7 -18,7c-10,0 -15,16 -17,53c-3,45 -6,52 -25,55c-23,3 -23,1 -24,-100zm11,-432c0,-91 -4,-167 -9,-170c-20,-13 -38,247 -21,299c22,68 30,35 30,-129zm-45,-128c6,-68 5,-71 -8,-46c-24,42 -34,109 -23,141l10,29l7,-25c4,-14 10,-58 14,-99zm-53,-50c-14,-14 -28,54 -17,79c6,14 11,8 18,-25c7,-30 7,-46 -1,-54zm-27,-8c3,-5 1,-10 -4,-10c-6,0 -11,5 -11,10c0,6 2,10 4,10c3,0 8,-4 11,-10zm410,-130c-20,-22 -31,-20 -22,5c4,8 14,15 23,15c16,0 16,-2 -1,-20zm-375,-94c-6,-17 -14,-25 -22,-20c-9,6 -9,9 -1,11c7,3 9,11 6,20c-4,11 -2,14 5,9c7,-4 12,-2 12,5c0,7 2,10 5,7c3,-3 1,-17 -5,-32zm-54,-142c-4,-61 -12,-64 -35,-14c-18,40 -18,45 -3,56c28,20 42,6 38,-42zm290,-480c40,-136 72,-250 69,-252c-2,-2 -18,25 -36,59c-21,42 -47,127 -76,248c-23,102 -43,189 -43,195c0,29 19,-27 86,-250zm-67,87c11,-63 19,-117 16,-119c-10,-10 -33,59 -39,118c-4,36 -9,81 -13,100c-3,23 -2,32 5,25c5,-5 19,-61 31,-124zm-180,-94c-12,-60 -29,-68 -29,-14c0,30 26,84 36,74c2,-2 -1,-29 -7,-60zm26,-172c-12,-103 -21,-153 -28,-146c-12,12 -3,207 13,274c9,35 15,46 23,38c8,-8 6,-55 -8,-166zm115,-52c0,-8 7,-27 16,-43c20,-33 13,-60 -16,-60c-18,0 -20,6 -20,66c0,41 4,63 10,59c6,-3 10,-13 10,-22zm-295,-16c9,-48 -25,-129 -58,-138c-14,-4 -28,-5 -30,-2c-6,6 66,173 75,173c4,0 10,-15 13,-33z" id="svg_2"/>
   <path fill="#ffffff" d="m1990,1405c-528,-180 -666,-228 -674,-235c-5,-5 49,8 120,29c734,217 724,214 724,232c0,10 -3,20 -7,22c-5,2 -78,-19 -163,-48z" id="svg_3"/>
   <path fill="#ffffff" d="m1750,1252c-228,-53 -417,-97 -419,-99c-16,-12 37,-4 289,43c628,118 571,105 568,127c-2,11 -7,21 -13,23c-5,1 -197,-41 -425,-94z" id="svg_4"/>
   <path fill="#ffffff" d="m2060,1219c-74,-9 -254,-31 -400,-48c-280,-33 -324,-40 -317,-48c3,-2 83,3 178,11c96,8 278,22 404,31c267,19 284,22 276,50c-6,20 -7,20 -141,4z" id="svg_5"/>
   <path fill="#ffffff" d="m4,1115c-4,-9 -2,-21 3,-26c9,-9 871,6 881,16c3,3 -44,5 -104,6c-60,0 -131,2 -159,4c-27,2 -177,6 -333,10c-254,5 -283,4 -288,-10z" id="svg_6"/>
   <path fill="#ffffff" d="m1570,1110c-129,-3 -226,-8 -215,-12c11,-3 180,-9 375,-13c195,-3 383,-8 418,-11c62,-6 62,-6 62,20l0,26l-202,-2c-112,-1 -309,-5 -438,-8z" id="svg_7"/>
   <path fill="#ffffff" d="m1238,1093c7,-3 16,-2 19,1c4,3 -2,6 -13,5c-11,0 -14,-3 -6,-6z" id="svg_8"/>
   <path fill="#ffffff" d="m495,1054c-209,-18 -404,-33 -432,-33c-50,-1 -53,-3 -53,-26c0,-17 6,-25 18,-25c45,-1 858,104 867,112c5,5 3,8 -5,7c-8,-1 -186,-16 -395,-35z" id="svg_9"/>
   <path fill="#ffffff" d="m1310,1080c20,-13 33,-13 25,0c-3,6 -14,10 -23,10c-15,0 -15,-2 -2,-10z" id="svg_10"/>
   <path fill="#ffffff" d="m1352,1075c3,-4 821,-115 845,-115c2,0 3,11 3,24c0,23 -4,24 -82,31c-46,4 -229,20 -408,36c-342,30 -366,32 -358,24z" id="svg_11"/>
   <path fill="#ffffff" d="m465,983c-241,-46 -440,-85 -442,-86c-7,-8 11,-47 21,-44c6,3 202,49 436,103c234,54 427,99 429,101c16,12 -54,0 -444,-74z" id="svg_12"/>
   <path fill="#ffffff" d="m1322,1054c5,-5 261,-69 658,-165c91,-22 173,-42 183,-45c13,-4 17,1 17,20c0,14 -1,26 -3,26c-1,0 -194,38 -427,85c-456,91 -436,88 -428,79z" id="svg_13"/>
   <path fill="#ffffff" d="m467,912c-391,-118 -417,-127 -411,-146c9,-28 8,-28 40,-15c16,6 204,72 419,146c214,74 392,136 394,139c12,12 -58,-8 -442,-124z" id="svg_14"/>
   <path fill="#ffffff" d="m1326,1031c5,-5 164,-63 354,-130c190,-67 371,-132 403,-143c50,-18 60,-19 68,-7c5,8 7,18 6,23c-2,5 -104,40 -227,78c-124,37 -274,84 -335,103c-224,69 -278,84 -269,76z" id="svg_15"/>
   <path fill="#ffffff" d="m501,850c-222,-93 -405,-171 -407,-173c-7,-7 7,-37 17,-37c5,0 113,49 241,109c128,59 280,130 338,157c165,77 236,112 225,113c-5,0 -192,-76 -414,-169z" id="svg_16"/>
   <path fill="#ffffff" d="m1305,1013c6,-5 156,-79 335,-164c179,-84 354,-168 390,-185c59,-29 66,-31 78,-16c6,9 9,19 5,23c-7,7 -753,328 -803,347c-10,3 -12,2 -5,-5z" id="svg_17"/>
   <path fill="#ffffff" d="m1290,996c0,-3 39,-28 88,-57c48,-29 217,-133 377,-231c263,-162 291,-177 302,-161c7,9 10,20 6,24c-8,7 -673,378 -741,413c-17,9 -32,14 -32,12z" id="svg_18"/>
   <path fill="#ffffff" d="m1314,949c99,-84 653,-502 666,-503c8,-1 16,6 18,15c2,11 -19,32 -60,61c-35,24 -191,134 -348,244c-296,208 -341,238 -276,183z" id="svg_19"/>
   <path fill="#ffffff" d="m1260,967c0,-4 500,-483 618,-591c32,-30 34,-30 47,-12c13,17 10,22 -23,50c-37,31 -257,222 -421,366c-165,144 -221,192 -221,187z" id="svg_20"/>
   <path fill="#ffffff" d="m1246,949c5,-9 136,-165 292,-347c268,-314 312,-357 312,-307c0,7 -100,120 -222,251c-301,325 -393,422 -382,403z" id="svg_21"/>
   <path fill="#ffffff" d="m1315,805c224,-330 417,-605 424,-605c5,0 14,6 20,13c8,11 -45,88 -245,353c-140,186 -262,346 -271,354c-9,8 24,-43 72,-115z" id="svg_22"/>
   <path fill="#ffffff" d="m1190,917c0,-5 70,-178 156,-385c86,-208 162,-392 170,-409c14,-35 20,-38 43,-24c12,8 -20,84 -169,403c-193,415 -199,428 -200,415z" id="svg_23"/>
   <path fill="#ffffff" d="m1250,845c24,-44 66,-123 95,-175c29,-52 102,-187 164,-300c61,-113 115,-211 119,-218c9,-13 42,-6 42,9c0,10 -438,740 -452,754c-6,6 8,-26 32,-70z" id="svg_24"/>
  </g>
 </g>

</svg>